<?xml version="1.0" encoding="utf-8"?>
<!-- Generator: Adobe Illustrator 26.1.0, SVG Export Plug-In . SVG Version: 6.00 Build 0)  -->
<svg version="1.1" id="Layer_1" xmlns="http://www.w3.org/2000/svg" xmlns:xlink="http://www.w3.org/1999/xlink" x="0px" y="0px"
	 viewBox="0 0 2000 2000" style="enable-background:new 0 0 2000 2000;" xml:space="preserve">
<style type="text/css">
	.st0{fill:#00AEEF;}
	.st1{fill:#0C2848;}
	.st2{font-family:'Poppins-Bold';}
	.st3{font-size:159.2115px;}
	.st4{font-family:'Poppins-Regular';}
	.st5{font-size:139.3206px;}
	.st6{letter-spacing:83;}
</style>
<path class="st0" d="M1012.68,496.61l-5.82,392.31c0,0,43.05,11.96,46.55,33.49l-115.2,13.16c0,0,17.45-44.25,40.73-40.67
	l-8.08-398.29C970.85,496.61,982.42,467.91,1012.68,496.61z"/>
<path class="st0" d="M1046.68,941.37v36.87l-26.94-36.87h-12.76l-2.84,76.57l-10.64-76.57l-19.14,7.09l-4.25,36.87l-7.01-26.94
	l-31.28,1.42c0,0-93.59,231.14-207.03,248.16c0,0,12.76,24.11,58.14,28.36l45.38-41.12l-28.36,41.12l85.08,11.34l46.8-60.98
	l-25.05,69.48c0,0,86.03,0,105.88-7.09l12.76-95.01l12.76,83.66l73.74-25.52V1164l11.34,35.45l28.36-19.85
	C1151.62,1179.6,1113.33,982.49,1046.68,941.37z"/>
<path class="st1" d="M938.12,744.56c0.14-46.44,0.29-92.87,0.43-139.31c0.04-12.23,0.04-24.69-3.66-36.35
	c-7.9-24.88-31.15-41.66-54.73-52.86c-58.48-27.79-125.14-31.87-189.89-32.69c-58.11-0.74-116.72,0.82-173.39,13.72
	c-30.87,7.03-61.45,17.63-87.13,36.16c-24.5,17.68-43.36,42.6-50.61,72.15c-8.47,34.48-3.52,76.36-4.29,111.99
	c-0.54,24.88-1.02,50.21,5.92,74.11c16.62,57.27,72.3,94.68,128.56,114.47c56.25,19.79,116.62,27.05,171.49,50.41
	c12.05,5.13,24.48,11.68,30.81,23.14c5.73,10.4,5.39,22.94,4.9,34.8c-0.64,15.43-1.28,30.86-1.92,46.29
	c-0.2,4.78-0.47,9.81-3.08,13.82c-3.97,6.1-11.96,7.92-19.18,8.81c-10.63,1.31-21.37,1.73-32.07,1.24
	c-8.55-0.39-18.01-1.83-23.43-8.46c-4.88-5.97-5.03-14.38-4.95-22.08c0.25-23.95,0.5-47.91,0.75-71.86c-87.13,0-174.26,0-261.4,0
	c1.8,30.91-1.15,61.94,0.24,92.87c1.4,30.93,7.62,62.75,25.64,87.93c20.43,28.56,53.61,45.3,87,56.19
	c81.13,26.46,168.41,24.36,253.71,22c-18.06-7.56-31.23-25.67-32.86-45.18c47.82,2.04,86.71-37.09,114.97-75.73
	c29.95-40.94,55.83-85.31,72.98-133.18c14.26-39.8,25.91-89.75-0.55-127.23c-26.84-38.02-74.59-51.65-117.96-60.1
	c-34.17-6.66-69.25-11.46-100.79-26.2c-13.37-6.25-26.37-14.66-34.05-27.26c-14.31-23.47-7.56-55.59-6.85-81.61
	c0.17-6.08,0.55-12.73,4.63-17.24c10.94-12.12,43.98-5.82,58.21-4.84c4.39,0.3,9.04,0.77,12.56,3.43
	c11.34,8.57,4.49,97.47,6.54,97.48C789.17,743.79,863.65,744.18,938.12,744.56z"/>
<path class="st1" d="M1063.33,552.05c0,0,0,337.05,0,338.4c0,12.03,26.4,41.9,32.71,52.05c15.75,25.32,31.09,50.93,44.86,77.4
	c20.68,39.75,38.08,81.68,47.11,125.71c1.92,9.38,6.38,22.74,5.04,32.29c-2.25,16.05,0.62,8.84-13.9,15.74
	c-20.35,9.66-37.86,16.59-52.13,35.36c49.83,23.28,112.96,25.33,167.28,27.35c101.41,3.76,317.31,1.93,334.56-137.82l0.01-283.99
	h-307.02V969c0,0,52.2,0,52.2,0c0.03,30.63,8.2,64.51,2.09,94.8c-6.17,30.57-26.58,22.77-52.18,26.06c0,0-58.34,7.5-52.82-38.94
	c0.34-45.37,0.68-90.74,1.01-136.11c0.54-72.24-7.43-150.75,0.59-222.12c1.18-10.51,5.77-21.11,14.44-27.18
	c7.94-5.56,18.14-6.63,27.83-6.68c8.99-0.05,17.98,0.62,26.85,2c6.77,1.06,13.93,2.77,18.59,7.81c7.59,8.21,4.96,112.34,7.07,112.34
	c0.01,0,261.34,0,261.34,0s-0.01-96.39-0.01-96.51c-0.01-99.27-51.88-158.27-148.81-176.56c-81.09-15.3-164.36-18.87-246.47-10.64
	C1180.94,502.54,1097.78,504.12,1063.33,552.05z"/>
<text transform="matrix(1 0 0 1 371.1244 1396.3943)" class="st0 st2 st3">SPOTLESS GURU</text>
<g>
	<text transform="matrix(1 0 0 1 371.1244 1516.7966)" class="st1 st4 st5 st6">CLEANERS</text>
</g>
</svg>
